<svg xmlns="http://www.w3.org/2000/svg" width="1600" height="900" viewBox="0 0 1600 900">
  <defs>
    <linearGradient id="g1" x1="0" x2="1" y1="0" y2="1">
      <stop offset="0%" stop-color="#ffb347"/>
      <stop offset="50%" stop-color="#ffcc33"/>
      <stop offset="100%" stop-color="#ff6f61"/>
    </linearGradient>
    <linearGradient id="g2" x1="0" x2="1" y1="0" y2="1">
      <stop offset="0%" stop-color="#111827"/>
      <stop offset="100%" stop-color="#374151"/>
    </linearGradient>
  </defs>

  <rect width="1600" height="900" fill="url(#g1)" rx="16"/>

  <g transform="translate(80,60)">
    <rect x="0" y="0" width="1440" height="120" rx="12" fill="#ffffff" fill-opacity="0.06"/>
    <text x="30" y="76" font-family="Inter, Arial, sans-serif" font-size="56" fill="#fff">Recipe Finder</text>

    <g transform="translate(0,160)">
      <rect x="0" y="0" width="320" height="200" rx="12" fill="#fff" fill-opacity="0.18"/>
      <rect x="350" y="0" width="320" height="200" rx="12" fill="#fff" fill-opacity="0.12"/>
      <rect x="700" y="0" width="320" height="200" rx="12" fill="#fff" fill-opacity="0.12"/>

      <rect x="0" y="230" width="1020" height="360" rx="12" fill="#ffffff" fill-opacity="0.06"/>

      <text x="24" y="390" font-family="Inter, Arial, sans-serif" font-size="28" fill="#fff">Search results, recipe cards and detail view mockup</text>
    </g>

    <g transform="translate(1180,200)">
      <rect x="0" y="0" width="300" height="500" rx="12" fill="url(#g2)"/>
      <text x="20" y="36" font-family="Inter, Arial, sans-serif" font-size="22" fill="#fff">Sidebar</text>
      <circle cx="64" cy="80" r="36" fill="#f97316"/>
    </g>
  </g>

  <g transform="translate(100,640)">
    <rect x="0" y="0" width="400" height="64" rx="10" fill="#ffffff" fill-opacity="0.08"/>
    <text x="22" y="42" font-family="Inter, Arial, sans-serif" font-size="20" fill="#fff">Built with React + Tailwind</text>
  </g>

</svg>